<?xml version="1.0" encoding="UTF-8"?>
<svg id="Capa_1" data-name="Capa 1" xmlns="http://www.w3.org/2000/svg" viewBox="0 0 300 228.31">
  <defs>
    <style>
      .cls-1 {
        fill: #3d3429;
        stroke-width: 0px;
      }
    </style>
  </defs>
  <path class="cls-1" d="m117.35,113.74c-7.09-7.07-13.98-13.89-20.81-20.78-1.14-1.15-1.85-.28-2.69.27-10.9,7.1-21.8,14.21-32.69,21.32-1.22.79-2.44,1.58-3.65,2.4-5.41,3.66-11.65,3.04-16.29-1.63-4.5-4.53-5.18-11.53-1.57-16.66.74-1.05,1.64-2,2.55-2.91,10.8-10.82,21.75-21.48,32.38-32.47,11.13-11.5,29.79-11.36,40.87.23,18.55,19.4,37.86,38.07,56.84,57.07,12.69,12.71,14.46,31.39,4.26,45.25-1.38,1.87-3.01,3.57-4.62,5.47,7.67,3.74,15.65,6.17,23.95,7.52,15.18,2.46,29.94.9,44.33-4.54,4.83-1.83,9.74-3.44,14.64-5.1,5.08-1.72,9.29.1,10.89,4.64,1.49,4.21-1,8.91-5.73,10.44-9.29,3-18.44,6.73-27.95,8.66-32.6,6.62-61.8-.64-87.1-22.71-24.05-20.97-51.42-26.01-81.65-16.37-6.38,2.04-12.64,4.46-19.01,6.51-5.93,1.91-11.13-2.43-10.41-8.53.36-3.04,2.17-5.1,4.92-6.08,15.12-5.42,30.13-11.34,46.52-11.75,3.31-.08,6.63-.03,9.94-.12.83-.02,1.93-.05,2.45-.55,6.51-6.39,12.94-12.87,19.63-19.58Z"/>
  <path class="cls-1" d="m204.28,113.8c-21.69-.01-38.77-17.1-38.79-38.8-.02-21.79,17.15-38.89,38.99-38.84,21.68.05,38.7,17.19,38.67,38.92-.04,21.68-17.16,38.74-38.87,38.72Z"/>
</svg>