<?xml version="1.0" encoding="UTF-8"?>
<svg id="Capa_1" data-name="Capa 1" xmlns="http://www.w3.org/2000/svg" viewBox="0 0 243.39 289.78">
  <defs>
    <style>
      .cls-1 {
        fill: #3d3429;
        stroke-width: 0px;
      }
    </style>
  </defs>
  <path class="cls-1" d="m184.43,268.55c-2.4-2.44-3.27-5.37-3.26-8.79.05-59.21.04-118.42.03-177.64,0-15.18-10.08-27.17-24.97-29.79-1.28-.23-2.6-.29-3.9-.29-11.08-.02-22.15-.13-33.23.01-11.53.15-21.42,7.52-25.1,18.4-.26.78-.42,1.6-.65,2.49,1.93.77,3.75,1.36,5.46,2.19,14.84,7.22,22.62,19.1,23.29,35.58.16,4.07.06,8.15.02,12.23-.04,4.66-2.98,7.72-7.62,7.73-21.15.04-42.3.04-63.46,0-4.12,0-7.35-2.42-7.51-6.31-.36-8.35-1.08-16.81,1.6-24.94,4.3-13.09,13.09-21.81,26.23-26.03,1.46-.47,2.07-1.13,2.32-2.62,3.66-21.64,22.95-38.19,44.93-38.46,11.46-.14,22.92-.15,34.38,0,24.65.33,45.83,20.32,47.67,44.89.18,2.37.27,4.76.27,7.14.01,58.14,0,116.27.05,174.41,0,3.69-.66,6.99-3.15,9.79h-13.39Z"/>
  <path class="cls-1" d="m92.58,160.24c0-5.4,4.4-9.8,9.8-9.82,5.39-.02,9.83,4.35,9.91,9.74.08,5.4-4.53,10.02-9.94,9.97-5.37-.05-9.77-4.51-9.77-9.88Z"/>
  <path class="cls-1" d="m43.27,209.47c-5.39-.03-9.77-4.45-9.77-9.85,0-5.37,4.43-9.82,9.79-9.85,5.42-.03,10.01,4.59,9.91,9.99-.1,5.39-4.56,9.75-9.93,9.71Z"/>
  <path class="cls-1" d="m92.57,199.63c0,5.4-4.39,9.82-9.78,9.85-5.47.03-10.01-4.52-9.93-9.95.08-5.36,4.59-9.79,9.92-9.76,5.37.04,9.79,4.49,9.79,9.86Z"/>
  <path class="cls-1" d="m112.33,199.72c-.03-5.47,4.27-9.88,9.7-9.95,5.4-.06,9.84,4.33,9.88,9.77.04,5.46-4.29,9.88-9.71,9.93-5.43.04-9.84-4.31-9.87-9.75Z"/>
  <path class="cls-1" d="m72.83,160.34c-.03,5.44-4.48,9.84-9.87,9.78-5.44-.07-9.74-4.47-9.71-9.95.03-5.45,4.43-9.79,9.87-9.75,5.42.04,9.74,4.45,9.71,9.92Z"/>
</svg>