<?xml version="1.0" encoding="UTF-8"?>
<svg id="Capa_1" data-name="Capa 1" xmlns="http://www.w3.org/2000/svg" viewBox="0 0 300 244.34">
  <defs>
    <style>
      .cls-1 {
        fill: #3d3429;
        stroke-width: 0px;
      }
    </style>
  </defs>
  <path class="cls-1" d="m284,158.21c-.89.04-1.79.12-2.68.12-81.75,0-183.5,0-265.25,0h-2.59c-.19-.25-.38-.38-.38-.5.11-8.07-.39-16.22.5-24.2,1.39-12.41,12.79-22.07,25.3-22.46.73-.02,1.47-.03,2.2-.03,64.93,0,149.85,0,214.78,0,12.86,0,23.12,7.24,26.83,18.88.49,1.53.86,3.11,1.29,4.66v23.53Z"/>
  <path class="cls-1" d="m284,214.58c-1.22,3.08-3.2,5.29-6.68,5.73-4.02.51-7.84-2.86-8-7.14-.1-2.75-.02-5.52-.02-8.41H27.72c0,2.29,0,4.61,0,6.94-.01,5.17-2.91,8.61-7.29,8.66-4.38.05-7.41-3.43-7.41-8.53,0-12.09,0-24.18,0-36.27,0-.73,0-1.45,0-2.52h3.5c81.35,0,182.71,0,264.06,0,1.14,0,2.28-.08,3.42-.12v41.67Z"/>
  <path class="cls-1" d="m84.01,96.3h-39.39c-.05-.75-.13-1.38-.13-2.02,0-11.43-.07-22.87.01-34.3.1-13.42,8.52-24.05,21.3-26.94,2.29-.52,4.69-.7,7.04-.7,43.77-.04,107.54-.05,151.32-.02,16.7,0,28.33,11.67,28.37,28.38.03,11.02,0,22.05,0,33.07,0,.8-.07,1.59-.11,2.52h-39.42c0-2.3.09-4.56-.01-6.82-.62-13.73-11.55-25.12-25.32-25.39-19.51-.38-59.03-.38-78.54.01-13.56.27-24.48,11.76-25.1,25.37-.1,2.19-.01,4.39-.01,6.84Z"/>
  <g>
    <path class="cls-1" d="m132.09,74.69h-19.33c-8.96,0-16.23,7.27-16.23,16.23v5.38h49.5v-7.66c0-7.7-6.25-13.95-13.95-13.95Z"/>
    <path class="cls-1" d="m183.61,74.69h-19.33c-7.7,0-13.95,6.25-13.95,13.95v7.66h49.5v-5.38c0-8.96-7.27-16.23-16.23-16.23Z"/>
  </g>
</svg>