<?xml version="1.0" encoding="UTF-8"?>
<svg id="Capa_1" data-name="Capa 1" xmlns="http://www.w3.org/2000/svg" viewBox="0 0 295.84 244.34">
  <defs>
    <style>
      .cls-1 {
        fill: #3d3429;
        stroke-width: 0px;
      }
    </style>
  </defs>
  <g>
    <path class="cls-1" d="m47.92,90.12h-23.04c-.03-.64-.08-1.19-.08-1.73,0-9.82-.04-19.64,0-29.45.06-11.52,4.98-20.65,12.46-23.13,1.34-.44,2.74-.6,4.12-.6,25.6-.03,51.2-.04,76.8-.02,9.77,0,16.57,10.02,16.59,24.37.02,9.47,0,18.93,0,28.4,0,.68-.04,1.37-.07,2.16h-23.05c0-1.97.05-3.92,0-5.85-.36-11.79-6.75-21.57-14.81-21.81-11.41-.33-22.83-.32-34.24,0-7.93.23-14.32,10.1-14.68,21.78-.06,1.88,0,3.77,0,5.87Z"/>
    <path class="cls-1" d="m103.11,90.16h-46.4c-1.36-11.1,2.38-17.97,7.89-17.82,10.02.27,20.05.32,30.06-.02,5.29-.18,8.86,5.72,8.45,14.44-.05,1.05,0,2.11,0,3.41Z"/>
    <path class="cls-1" d="m35.78,102.65h86.81c10.42,0,18.88,8.46,18.88,18.88v34.21H16.9v-34.21c0-10.42,8.46-18.88,18.88-18.88Z"/>
    <path class="cls-1" d="m141.48,168.24H16.9v38.78c0,3.96,2.96,7.16,6.6,7.16s6.6-3.21,6.6-7.16v-7.35h98.08v7.35c0,3.96,2.96,7.16,6.6,7.16s6.6-3.21,6.6-7.16v-7.35h.09v-31.43Z"/>
  </g>
  <g>
    <path class="cls-1" d="m182.2,90.12h-23.04c-.03-.64-.08-1.19-.08-1.73,0-9.82-.04-19.64,0-29.45.06-11.52,4.98-20.65,12.46-23.13,1.34-.44,2.74-.6,4.12-.6,25.6-.03,51.2-.04,76.8-.02,9.77,0,16.57,10.02,16.59,24.37.02,9.47,0,18.93,0,28.4,0,.68-.04,1.37-.07,2.16h-23.05c0-1.97.05-3.92,0-5.85-.36-11.79-6.75-21.57-14.81-21.81-11.41-.33-22.83-.32-34.24,0-7.93.23-14.32,10.1-14.68,21.78-.06,1.88,0,3.77,0,5.87Z"/>
    <path class="cls-1" d="m237.39,90.16h-46.4c-1.36-11.1,2.38-17.97,7.89-17.82,10.02.27,20.05.32,30.06-.02,5.29-.18,8.86,5.72,8.45,14.44-.05,1.05,0,2.11,0,3.41Z"/>
    <path class="cls-1" d="m170.06,102.65h86.81c10.42,0,18.88,8.46,18.88,18.88v34.21h-124.58v-34.21c0-10.42,8.46-18.88,18.88-18.88Z"/>
    <path class="cls-1" d="m275.76,168.24h-124.58v38.78c0,3.96,2.96,7.16,6.6,7.16s6.6-3.21,6.6-7.16v-7.35h98.08v7.35c0,3.96,2.96,7.16,6.6,7.16s6.6-3.21,6.6-7.16v-7.35h.09v-31.43Z"/>
  </g>
</svg>