<?xml version="1.0" encoding="UTF-8"?>
<svg id="Capa_1" data-name="Capa 1" xmlns="http://www.w3.org/2000/svg" viewBox="0 0 300 300">
  <defs>
    <style>
      .cls-1 {
        fill: #3d3429;
        stroke-width: 0px;
      }
    </style>
  </defs>
  <path class="cls-1" d="m250.74,159.76c8.28-.27,14.49-5.27,16.58-13.34.09-.35.29-.68.44-1.02v-10.12c-.29-.94-.56-1.88-.86-2.81-2.25-6.95-8.58-11.69-15.85-11.89-.77-.02-1.53-.01-2.3-.01-65.84,0-131.69,0-197.53,0-10.1,0-15.7,4.18-18.68,13.93-.04.13-.19.22-.29.33v10.58c.22.64.46,1.27.65,1.92,2.11,7.22,8.39,12.13,15.91,12.42.91.04,1.82,0,2.92,0v88.35c-2.38,0-4.67.13-6.95-.03-6.07-.43-10.41,1.83-12.53,7.73v4.14c1.28,3.94,3.88,6.54,7.82,7.82h219.88c3.94-1.28,6.54-3.89,7.82-7.82v-4.14c-2.13-5.89-6.45-8.17-12.53-7.73-2.27.16-4.57.03-6.99.03v-88.2c.88-.05,1.69-.11,2.5-.13Zm-22.37,88.17c-.51.06-.89.15-1.26.15-9.2,0-18.39,0-27.89,0-.04-.89-.1-1.69-.11-2.49-.1-7.2.12-14.42-.35-21.6-1.38-21.17-18.48-39.94-39.46-43.65-28.05-4.97-53.42,13.08-57.86,41.26-.45,2.86-.49,5.8-.52,8.71-.08,5.81-.02,11.63-.02,17.61h-29.3v-88h156.78v88.01Z"/>
  <path class="cls-1" d="m144.74,75.01c1.1.54,2.28.92,3.33,1.55,2.42,1.44,2.45,2.68.13,4.23-1.27.85-2.67,1.51-3.92,2.4-4.07,2.88-5.28,8.4-2.85,12.7,2.44,4.33,7.9,6.48,12.27,4.19,3.61-1.89,7.15-4.24,10.08-7.05,4.46-4.28,6.39-9.89,5.71-16.12-1.01-9.21-6.49-15.08-14.56-18.89-1.11-.52-2.28-.94-3.3-1.59-2.06-1.31-2.08-2.45-.12-3.84,1.12-.79,2.38-1.39,3.54-2.14,3.23-2.08,4.87-5.03,4.67-8.89-.27-5.06-3.41-7.76-7.87-9.32h-4.14c-2.63,1.52-5.43,2.81-7.85,4.6-6.85,5.05-10.44,11.78-9.2,20.45,1.23,8.59,6.58,14.06,14.1,17.73Z"/>
  <path class="cls-1" d="m203.62,75.01c1.1.54,2.28.92,3.33,1.55,2.42,1.44,2.45,2.68.13,4.23-1.27.85-2.67,1.51-3.92,2.4-4.07,2.88-5.28,8.4-2.85,12.7,2.44,4.33,7.9,6.48,12.27,4.19,3.61-1.89,7.15-4.24,10.08-7.05,4.46-4.28,6.39-9.89,5.71-16.12-1.01-9.21-6.49-15.08-14.56-18.89-1.11-.52-2.28-.94-3.3-1.59-2.06-1.31-2.08-2.45-.12-3.84,1.12-.79,2.38-1.39,3.54-2.14,3.23-2.08,4.87-5.03,4.67-8.89-.27-5.06-3.41-7.76-7.87-9.32h-4.14c-2.63,1.52-5.43,2.81-7.85,4.6-6.85,5.05-10.44,11.78-9.2,20.45,1.23,8.59,6.58,14.06,14.1,17.73Z"/>
  <path class="cls-1" d="m86.31,75.2c1.11.52,2.27.96,3.28,1.63,1.95,1.3,1.98,2.35.1,3.69-1.31.93-2.78,1.63-4.1,2.53-4.12,2.82-5.46,8.29-3.13,12.64,2.37,4.45,7.93,6.7,12.38,4.38,3.62-1.88,7.15-4.24,10.08-7.06,4.46-4.28,6.39-9.89,5.7-16.12-1.01-9.21-6.49-15.07-14.57-18.88-1.11-.52-2.28-.94-3.3-1.6-2.05-1.32-2.07-2.45-.11-3.84,1.12-.79,2.38-1.39,3.54-2.14,2.99-1.91,4.63-4.62,4.69-8.2.08-4.76-2.2-7.64-7.9-10h-4.14c-3.11,1.89-6.49,3.47-9.29,5.75-5.82,4.74-8.76,11-7.85,18.63,1.09,9.1,6.64,14.84,14.63,18.58Z"/>
</svg>